<svg xmlns="http://www.w3.org/2000/svg" width="244" height="41" viewBox="0 0 244 41">
    <g fill="none" fill-rule="nonzero">
        <g fill="#FFF">
            <path d="M147.804 37.846c-1.244 1.367-3.36 2.609-6.47 2.609-3.111 0-5.102-1.242-6.47-2.61-1.867-1.987-2.365-4.348-2.365-8.075 0-3.727.498-6.088 2.364-8.076 1.245-1.366 3.36-2.609 6.47-2.609 3.111 0 5.227 1.243 6.47 2.61 1.867 1.987 2.365 4.348 2.365 8.075 0 3.852-.498 6.212-2.364 8.076zM143.822 24.8c-.622-.62-1.369-.87-2.488-.87-.996 0-1.742.373-2.365.87-1.12 1.119-1.244 2.858-1.244 4.97 0 2.112.125 3.976 1.244 5.094.623.621 1.37.87 2.365.87.995 0 1.866-.373 2.488-.87 1.12-1.118 1.244-2.857 1.244-5.094-.124-2.112-.124-3.976-1.244-4.97zM124.785 40.455c-4.107 0-9.333-2.236-9.333-10.685 0-8.448 5.102-10.685 9.333-10.685 2.861 0 4.977.87 6.843 2.734l-3.484 3.478c-1.12-1.118-1.99-1.615-3.36-1.615-1.244 0-2.24.497-2.986 1.367-.746.994-1.12 2.36-1.12 4.597 0 2.236.374 3.603 1.12 4.597.747.87 1.742 1.367 2.987 1.367 1.368 0 2.24-.497 3.36-1.616l3.483 3.48c-1.742 2.111-3.857 2.981-6.843 2.981zM165.722 40.207V27.658c0-2.858-1.742-3.851-3.484-3.851-1.618 0-3.484.993-3.484 3.851v12.549h-5.226V19.458h5.101v1.864c1.369-1.491 3.235-2.112 5.226-2.112 2.115 0 3.733.62 4.977 1.863 1.742 1.74 2.116 3.603 2.116 5.964V40.33h-5.226v-.124zM186.999 40.207V27.658c0-2.858-1.742-3.851-3.484-3.851-1.618 0-3.484.993-3.484 3.851v12.549h-5.226V19.458h5.102v1.864c1.368-1.491 3.235-2.112 5.226-2.112 2.115 0 3.732.62 4.977 1.863 1.742 1.74 2.115 3.603 2.115 5.964V40.33h-5.226v-.124zM200.313 31.385c0 2.734 1.617 4.597 4.604 4.597 2.24 0 3.36-.62 4.728-1.988l3.11 3.106c-2.115 2.113-4.105 3.23-7.963 3.23-4.977 0-9.58-2.236-9.58-10.684 0-6.833 3.732-10.685 9.083-10.685 5.848 0 9.083 4.224 9.083 9.94v2.36h-13.065v.124zm7.341-5.715c-.498-1.242-1.742-2.112-3.484-2.112s-2.862.87-3.484 2.112c-.373.746-.498 1.367-.498 2.237h7.964c0-.994-.125-1.491-.498-2.237zM224.825 40.455c-4.106 0-9.332-2.236-9.332-10.685 0-8.448 5.102-10.685 9.332-10.685 2.862 0 4.977.87 6.844 2.734l-3.484 3.478c-1.12-1.118-1.991-1.615-3.36-1.615-1.244 0-2.24.497-2.986 1.367-.747.994-1.12 2.36-1.12 4.597 0 2.236.373 3.603 1.12 4.597.747.87 1.742 1.367 2.986 1.367 1.369 0 2.24-.497 3.36-1.616l3.484 3.48c-1.867 2.111-3.982 2.981-6.844 2.981zM240.628 40.207c-4.23 0-6.097-2.982-6.097-5.964V23.93h-2.24v-3.976h2.24v-6.212h5.226v6.212h3.733v3.976h-3.733v9.94c0 1.242.497 1.863 1.742 1.863h1.866v4.348h-2.737v.125z"/>
        </g>
        <g fill="#E1251B">
            <path d="M90.788 15.837l12.575-12.589 3.34 3.336-12.575 12.59zM80.63.621h4.604v13.542H80.63zM96.432 24.352h13.812v4.721H96.432zM86.354 33.421c-1.12 1.118-2.489 1.74-4.107 1.74-1.493 0-2.861-.497-3.981-1.74-1.12-1.118-1.742-2.485-1.742-4.1 0-1.615.622-2.982 1.742-4.1 1.12-1.118 2.488-1.74 3.981-1.615 1.618 0 2.987.497 4.107 1.615.995 1.118 1.617 2.485 1.617 4.1.125 1.491-.498 2.858-1.617 4.1m3.732-11.927c-2.115-2.112-4.728-3.23-7.714-3.23-2.986 0-5.475 1.118-7.59 3.23-2.116 2.112-3.235 4.721-3.235 7.827 0 2.982.995 5.591 3.235 7.703 2.115 2.112 4.604 3.23 7.59 3.23 2.986 0 5.6-1.118 7.714-3.23 2.116-2.112 3.111-4.721 3.111-7.703s-.995-5.59-3.11-7.827M13.691 13.238c-3.733 0-6.844 1.243-9.457 3.976-2.613 2.61-3.981 5.84-3.981 9.567 0 3.727 1.244 6.957 3.981 9.566 2.613 2.61 5.724 3.852 9.457 3.852 2.986 0 5.724-.87 8.212-2.733 2.364-1.864 3.858-4.225 4.729-7.207h-5.475c-.747 1.367-1.742 2.61-2.987 3.48-1.368.869-2.861 1.366-4.479 1.366-2.364 0-4.23-.87-5.848-2.485-1.618-1.615-2.489-3.603-2.364-5.964 0-2.36.746-4.224 2.364-5.963 1.617-1.615 3.608-2.485 5.848-2.485 1.618 0 3.11.497 4.48 1.367 1.244.87 2.24 2.112 2.986 3.478h5.475c-.747-2.857-2.365-5.342-4.729-7.206-2.488-1.615-5.226-2.609-8.212-2.609M49.025 30.067l.995-.497v2.112c0 1.74-.497 3.106-1.493 3.727-.995.746-2.115.994-3.235.994a3.06 3.06 0 0 1-1.866-.621c-.498-.497-.747-1.118-.747-2.112s.373-1.864 1.244-2.36c.498-.25 1.37-.498 2.489-.746l2.613-.497zm-2.24-11.803c-3.484 0-5.972.87-7.341 2.733-.871 1.118-1.369 2.61-1.493 4.597h5.226c.124-.87.373-1.491.746-1.864.498-.745 1.493-1.118 2.738-.994 1.12 0 1.99.125 2.613.497.622.249.87.87.87 1.74 0 .745-.372 1.242-1.243 1.615l-3.982.621c-1.867.249-3.36.746-4.48 1.367-1.99 1.118-2.862 2.982-2.862 5.715 0 1.864.498 3.354 1.742 4.473.996.87 2.49 1.366 4.231 1.49 2.862 0 5.102-.745 6.72-2.112v2.113h5.225V24.848c0-2.484-.87-4.224-2.613-5.218-1.866-.994-3.857-1.366-6.097-1.366zM30.006 13.404h5.226v26.973h-5.226zM67.69 19.01c-1.37.496-2.614 1.49-3.734 2.98v-2.608H58.98v20.873h5.226v-9.94c0-1.74.25-2.857.622-3.603a4.742 4.742 0 0 1 1.867-1.988c.87-.621 1.866-.87 2.862-.87l1.617.125v-5.343l-1.493-.124-1.99.497z"/>
        </g>
    </g>
</svg>
