<svg xmlns="http://www.w3.org/2000/svg" xmlns:xlink="http://www.w3.org/1999/xlink" width="24" height="24" viewBox="0 0 24 24">
    <defs>
        <path id="a" d="M3.51 19.755a5.223 5.223 0 0 1 0-7.347l9.246-9.246a.416.416 0 0 1 .592 0l.591.591a.416.416 0 0 1 0 .592l-9.163 9.163a3.707 3.707 0 0 0-1.09 2.274 3.574 3.574 0 0 0 3.997 3.906 3.773 3.773 0 0 0 2.225-1.166l9.846-10.22a2.132 2.132 0 0 0-1.525-3.607 2.1 2.1 0 0 0-1.49.616l-9.447 9.454a.937.937 0 0 0 1.324 1.325l8.522-8.53a.416.416 0 0 1 .591 0l.592.591a.416.416 0 0 1 0 .592l-8.447 8.446c-.397.428-.919.72-1.49.833a2.607 2.607 0 0 1-3.033-3.04 2.782 2.782 0 0 1 .833-1.491l9.246-9.246a3.998 3.998 0 0 1 2.308-1.216 3.798 3.798 0 0 1 3.207 6.397L10.949 19.73a5.173 5.173 0 0 1-7.439.025z"/>
    </defs>
    <g fill="none" fill-rule="evenodd">
        <mask id="b" fill="#fff">
            <use xlink:href="#a"/>
        </mask>
        <use fill="#303C42" fill-rule="nonzero" xlink:href="#a"/>
        <g fill="#9D9D9D" mask="url(#b)">
            <path d="M0 0h24v24H0z"/>
        </g>
        <g stroke="#95BDEF" stroke-width="2" transform="translate(-264 -411)">
            <rect width="534" height="452" x="1" y="58" rx="20"/>
        </g>
    </g>
</svg>
