<svg xmlns="http://www.w3.org/2000/svg" width="20" height="20" viewBox="0 0 20 20">
    <g fill="none" fill-rule="evenodd">
        <circle cx="10" cy="10" r="10" fill="#FFF"/>
        <g fill="#E1251B" fill-rule="nonzero">
            <path d="M10.256 8.706l3.336-3.34.888.887-3.336 3.34zM7.561 4.665h1.222v3.599H7.561zM11.729 10.995h3.665v1.255h-3.665zM9.08 13.381c-.297.297-.66.462-1.09.462-.396 0-.76-.132-1.056-.462a1.497 1.497 0 0 1-.463-1.09c0-.428.166-.792.463-1.089.297-.297.66-.462 1.056-.429.43 0 .793.132 1.09.43.264.296.429.66.429 1.089.033.396-.132.76-.43 1.09m.991-3.17a2.82 2.82 0 0 0-2.047-.859c-.792 0-1.453.297-2.014.859a2.84 2.84 0 0 0-.858 2.08c0 .792.264 1.485.858 2.047.561.561 1.222.858 2.014.858a2.82 2.82 0 0 0 2.047-.858c.561-.562.826-1.255.826-2.047 0-.793-.265-1.486-.826-2.08"/>
        </g>
    </g>
</svg>
