<svg xmlns="http://www.w3.org/2000/svg" xmlns:xlink="http://www.w3.org/1999/xlink" width="24" height="24" viewBox="0 0 24 24">
    <defs>
        <path id="a" d="M12 17c1.378 0 2.5 1.122 2.5 2.5S13.378 22 12 22a2.503 2.503 0 0 1-2.5-2.5c0-1.378 1.122-2.5 2.5-2.5zm0-10a2.503 2.503 0 0 1-2.5-2.5C9.5 3.122 10.622 2 12 2s2.5 1.122 2.5 2.5S13.378 7 12 7zm0 2.5c1.378 0 2.5 1.122 2.5 2.5s-1.122 2.5-2.5 2.5A2.503 2.503 0 0 1 9.5 12c0-1.378 1.122-2.5 2.5-2.5z"/>
    </defs>
    <g fill="none" fill-rule="evenodd">
        <mask id="b" fill="#fff">
            <use xlink:href="#a"/>
        </mask>
        <use fill="#303C42" xlink:href="#a"/>
        <g fill="#9D9D9D" mask="url(#b)">
            <path d="M0 0h24v24H0z"/>
        </g>
        <g stroke="#95BDEF" stroke-width="2" transform="translate(-392 -155)">
            <rect width="534" height="452" x="1" y="58" rx="20"/>
        </g>
    </g>
</svg>
