<svg xmlns="http://www.w3.org/2000/svg" xmlns:xlink="http://www.w3.org/1999/xlink" width="24" height="24" viewBox="0 0 24 24">
    <defs>
        <path id="a" d="M22.68 11.407c-1.668-1.678-4.923-4.657-6.866-6.49l-.596-.55A1.357 1.357 0 0 0 14.301 4a1.375 1.375 0 0 0-1.384 1.375v3.209H2.833C1.821 8.584 1 9.404 1 10.417v3.667c0 1.012.82 1.833 1.833 1.833h10.084v3.209c0 .759.616 1.375 1.375 1.375.34-.003.668-.134.917-.367l.596-.55c1.943-1.833 5.207-4.813 6.875-6.49a1.283 1.283 0 0 0 0-1.696v.009z"/>
    </defs>
    <g fill="none" fill-rule="evenodd">
        <mask id="b" fill="#fff">
            <use xlink:href="#a"/>
        </mask>
        <use fill="#303C42" fill-rule="nonzero" xlink:href="#a"/>
        <g fill="#9D9D9D" mask="url(#b)">
            <path d="M0 0h24v24H0z"/>
        </g>
        <g stroke="#95BDEF" stroke-width="2" transform="translate(-264 -379)">
            <rect width="534" height="452" x="1" y="58" rx="20"/>
        </g>
    </g>
</svg>
