<svg xmlns="http://www.w3.org/2000/svg" xmlns:xlink="http://www.w3.org/1999/xlink" width="24" height="24" viewBox="0 0 24 24">
    <defs>
        <path id="a" d="M17.542 8.333c.275 0 .458.184.458.459v2.291c0 2.842-2.2 5.225-5.042 5.5v3.667h1.375c1.009 0 1.834.825 1.834 1.833v.459c0 .275-.184.458-.459.458H9.292c-.275 0-.459-.183-.459-.458v-.459c0-1.008.825-1.833 1.834-1.833h1.375v-3.667C9.2 16.308 7 13.925 7 11.083V8.792c0-.275.183-.459.458-.459s.459.184.459.459v2.291c0 2.567 2.016 4.584 4.583 4.584s4.583-2.017 4.583-4.584V8.792c0-.275.184-.459.459-.459zM12.5 14.75a3.677 3.677 0 0 1-3.667-3.667V4.667A3.677 3.677 0 0 1 12.5 1a3.677 3.677 0 0 1 3.667 3.667v6.416A3.677 3.677 0 0 1 12.5 14.75z"/>
    </defs>
    <g fill="none" fill-rule="evenodd">
        <mask id="b" fill="#fff">
            <use xlink:href="#a"/>
        </mask>
        <use fill="#303C42" fill-rule="nonzero" xlink:href="#a"/>
        <g fill="#9D9D9D" mask="url(#b)">
            <path d="M0 0h24v24H0z"/>
        </g>
        <g stroke="#95BDEF" stroke-width="2" transform="translate(-232 -251)">
            <rect width="534" height="452" x="1" y="58" rx="20"/>
        </g>
    </g>
</svg>
