<svg xmlns="http://www.w3.org/2000/svg" xmlns:xlink="http://www.w3.org/1999/xlink" width="24" height="24" viewBox="0 0 24 24">
    <defs>
        <path id="a" d="M12 1C5.925 1 1 5.925 1 12s4.925 11 11 11 11-4.925 11-11A11 11 0 0 0 12 1zm6.417 11.458a.458.458 0 0 1-.459.459h-5.041v5.041a.458.458 0 0 1-.459.459h-.916a.458.458 0 0 1-.459-.459v-5.041H6.042a.458.458 0 0 1-.459-.459v-.916c0-.253.206-.459.459-.459h5.041V6.042c0-.253.206-.459.459-.459h.916c.253 0 .459.206.459.459v5.041h5.041c.253 0 .459.206.459.459v.916z"/>
    </defs>
    <g fill="none" fill-rule="evenodd">
        <mask id="b" fill="#fff">
            <use xlink:href="#a"/>
        </mask>
        <use fill="#fff" fill-rule="nonzero" xlink:href="#a"/>
        <g fill="#7198c9" mask="url(#b)">
            <path d="M0 0h24v24H0z"/>
        </g>
        <g stroke="#95BDEF" stroke-width="2" transform="translate(-40 -219)">
            <rect width="534" height="452" x="1" y="58" rx="20"/>
        </g>
    </g>
</svg>
