<svg xmlns="http://www.w3.org/2000/svg" xmlns:xlink="http://www.w3.org/1999/xlink" width="24" height="24" viewBox="0 0 24 24">
    <defs>
        <path id="a" d="M21.551 2.005a.91.91 0 0 0-.19 0L2.23 12.935a.455.455 0 0 0 .082.83l5.711 1.904 2.123 6.075c.026.07.07.134.127.183.079.06.175.091.274.09h.182a.446.446 0 0 0 .146-.109l3.233-4.071 4.555 1.475h.146a.455.455 0 0 0 .446-.382l2.733-16.27a.446.446 0 0 0 0-.2.455.455 0 0 0-.438-.455zM10.885 16.069c-.03.06-.054.12-.073.183l-.41 3.37-1.54-4.136 8.9-8.699-6.877 9.282z"/>
    </defs>
    <g fill="none" fill-rule="evenodd">
        <mask id="b" fill="#fff">
            <use xlink:href="#a"/>
        </mask>
        <use fill="#ffffff" fill-rule="nonzero" xlink:href="#a"/>
        <g fill="#7198c9" mask="url(#b)">
            <path d="M0 0h24v24H0z"/>
        </g>
        <g stroke="#95BDEF" stroke-width="2" transform="translate(-136 -218)">
            <rect width="534" height="452" x="1" y="58" rx="20"/>
        </g>
    </g>
</svg>
